<?xml version="1.0" encoding="UTF-8"?>
<svg id="Layer_1" data-name="Layer 1" xmlns="http://www.w3.org/2000/svg" version="1.1" xmlns:xlink="http://www.w3.org/1999/xlink" viewBox="0 0 1000 1000">
  <defs>
    <style>
      .cls-1 {
        fill: url(#Silver);
      }

      .cls-1, .cls-2, .cls-3 {
        stroke: #004a8f;
        stroke-miterlimit: 10;
      }

      .cls-1, .cls-3 {
        stroke-width: 10px;
      }

      .cls-2 {
        fill: #004a8f;
        stroke-width: 3px;
      }

      .cls-3 {
        fill: #fff;
      }
    </style>
    <linearGradient id="Silver" x1="514.82" y1="252.24" x2="511.28" y2="745.83" gradientUnits="userSpaceOnUse">
      <stop offset="0" stop-color="#e5e2df"/>
      <stop offset="0" stop-color="#ded9d6"/>
      <stop offset=".06" stop-color="#cfcac8"/>
      <stop offset=".18" stop-color="#a8a4a6"/>
      <stop offset=".26" stop-color="#8b878d"/>
      <stop offset=".52" stop-color="#f3f4f4"/>
      <stop offset=".58" stop-color="#e4e5e5"/>
      <stop offset=".7" stop-color="#bfbec0"/>
      <stop offset=".86" stop-color="#847f84"/>
      <stop offset=".88" stop-color="#807b80"/>
      <stop offset="1" stop-color="#d1d3d4"/>
      <stop offset="1" stop-color="#a7a9ac"/>
    </linearGradient>
  </defs>
  <polygon class="cls-2" points="65.55 415.04 235.5 208.01 791.45 208.01 961.4 415.04 513.47 810.68 65.55 415.04"/>
  <polygon class="cls-3" points="763.92 252.47 263.02 252.47 128.59 416.23 513.47 756.19 898.36 416.23 898.36 416.23 763.92 252.47"/>
  <path class="cls-1" d="M395.16,493.89c10.7,43.34,21.4,86.67,32.1,130.01,3.48,14.4,7.01,29.78,13.6,42.93,4.48,8.94,10.88,17.18,16.99,25.07,8.09,10.45,17.78,19.98,28.08,28.47,5.36,4.42,8.04,6.63,13.4,11.05.22,5.11.34,7.67.56,12.78-67.58-59.69-135.15-119.38-202.73-179.07-3.57-3.16-5.36-4.73-8.93-7.89,5.36,4.42,8.04,6.63,13.4,11.06,7.71,6.28,15.53,13.34,24.16,18.31,3.4,1.97,4.68.89,3.35-2.18-4.25-9.76-12.53-19.42-19.22-28.79-14.99-20.66-29.98-41.33-44.97-61.99-9.78-13.49-30.81-33.38-35.53-48.98-4.53-14.99,15.37-40.47,23.33-55.29,12.69-23.63,25.38-47.26,38.07-70.9,5.92-11.37,14.96-24.98,15.92-37.2.37-4.69-2.79-9.63-8.32-13.32-7.88-5.26-18.46-5.33-27.59-5.97-6.14-.12-9.21-.19-15.35-.31,3.02-3.68,4.54-5.53,7.56-9.21h234.72c-.19,5.64-.28,8.46-.47,14.1-6.14-.12-9.21-.19-15.35-.31-11.46-.32-23.25,1.72-33.47,6.8-6.37,3.17-12.52,8.63-17.18,16.23-7.42,12.09-9.57,29.18-12.11,43.29-8.28,44.19-16.56,61.33-24.84,105.53,20.42,4.71,40.84,9.42,61.27,14.13,18.31,4.22,39.12,12.17,57.88,12.17,17.11,0,35.74-7.06,52.39-10.9,22.25-5.13,44.51-10.26,66.76-15.4-8.28-44.19-16.56-61.33-24.85-105.53-2.94-14.83-5.02-31.91-12.36-44.68-3.32-5.78-9.99-10.92-18.39-15.33-9.97-5.23-20.98-5.81-32-6.31-6,.12-9,.18-15.01.3-.19-5.64-.29-8.45-.48-14.09h234.39c3.02,3.68,4.54,5.53,7.56,9.21-6,.12-9,.18-15,.3-9.55.68-20.62,1.07-28.89,6.43-4.31,2.79-7.11,7.89-6.74,14,.73,11.99,9.44,24.83,15.3,36.07l38.07,70.9c7.96,14.82,27.85,40.3,23.33,55.29-4.71,15.6-25.74,35.49-35.53,48.98-14.99,20.66-29.98,41.33-44.97,61.99-6.9,9.63-15.72,19.59-19.96,29.78-.97,2.32,1.11,2.76,5.31.34,8.23-4.74,15.79-11.65,23.23-17.71,5.24-4.32,7.86-6.49,13.1-10.81-3.57,3.16-5.36,4.73-8.93,7.89-67.48,59.6-134.96,119.21-202.44,178.81.23-5.11.34-7.66.57-12.77,5.24-4.32,7.86-6.48,13.1-10.81,10.67-9.3,20.73-19.12,29.54-30.04,6-7.44,11.8-16.28,15.98-24.87,6.28-12.88,9.72-27.58,13.15-41.56,10.7-43.34,21.4-86.67,32.1-130.01-22.1,5.87-44.2,11.73-66.29,17.6-16.3,4.33-35.13,12.46-52.02,12.46-18.49,0-39.57-9.16-57.48-13.91-20.28-5.38-40.56-10.76-60.84-16.15Z"/>
</svg>